<svg xmlns="http://www.w3.org/2000/svg" width="44.034" height="52.717" viewBox="0 0 44.034 52.717">
  <path id="Icon_simple-sitepoint" data-name="Icon simple-sitepoint" d="M4.051,23.136l3.89,3.708,12.3,11.292L25.509,33.1a1.766,1.766,0,0,0-.1-2.164l-4.841-4.178.022-.011L15.38,21.774a1.73,1.73,0,0,1,.046-2.37L29.462,6.058,23.106,0,4.059,18.1a3.451,3.451,0,0,0,0,5.041Zm41.857,6.451L42.02,25.873,29.73,14.578l-5.3,5.032a1.7,1.7,0,0,0,.1,2.164l4.843,4.154h-.013l5.2,4.975A1.692,1.692,0,0,1,34.5,33.24L20.465,46.584l6.394,6.133L45.9,34.622a3.447,3.447,0,0,0,0-5.041Z" transform="translate(-2.966)" fill="#ffce00"/>
</svg>
