<svg xmlns="http://www.w3.org/2000/svg" width="1072.536" height="778.364" viewBox="0 0 1072.536 778.364">
  <g id="Group_461" data-name="Group 461" transform="translate(0 0)">
    <ellipse id="Ellipse_52" data-name="Ellipse 52" cx="363.924" cy="363.924" rx="363.924" ry="363.924" transform="translate(95.872 0)" fill="#f2f2f2"/>
    <ellipse id="Ellipse_53" data-name="Ellipse 53" cx="144.436" cy="23.11" rx="144.436" ry="23.11" transform="translate(0 732.144)" fill="#f2f2f2"/>
    <ellipse id="Ellipse_54" data-name="Ellipse 54" cx="223.486" cy="35.758" rx="223.486" ry="35.758" transform="translate(625.565 683.356)" fill="#f2f2f2"/>
    <path id="Path_345" data-name="Path 345" d="M869.167,435.945s1.9,6.342-8.879,12.05-13.953,27.272-1.268,33.614,16.49,14.587,10.148,20.3-17.758,20.93-2.537,24.735,17.124,11.416,12.685,14.587,10.148-5.708,10.148-5.708S892,550.74,905.318,546.935s50.738-76.107,31.711-86.255S869.167,435.945,869.167,435.945Z" transform="translate(-69.771 -60.535)" fill="#2f2e41"/>
    <path id="Path_346" data-name="Path 346" d="M892.566,498.472s6.579,23.026-4.934,24.671a44.945,44.945,0,0,0-19.737,8.224l21.381,27.96H928.75l24.671-24.671s-32.894-24.671-26.315-39.473S892.566,498.472,892.566,498.472Z" transform="translate(-70.183 -61.821)" fill="#ffb9b9"/>
    <path id="Path_347" data-name="Path 347" d="M892.566,498.472s6.579,23.026-4.934,24.671a44.945,44.945,0,0,0-19.737,8.224l21.381,27.96H928.75l24.671-24.671s-32.894-24.671-26.315-39.473S892.566,498.472,892.566,498.472Z" transform="translate(-70.183 -61.821)" opacity="0.1"/>
    <path id="Path_348" data-name="Path 348" d="M852.787,740.18l37.829,13.157,26.315,1.644-1.644-23.026L861.01,715.9Z" transform="translate(-20.535 -17.348)" fill="#ffb9b9"/>
    <path id="Path_349" data-name="Path 349" d="M953,786.343s0,23.026,3.289,23.026,47.7-4.934,60.855,0,32.894-13.158,23.026-23.026-25.965-24.671-36.008-21.381S953,776.475,953,776.475Z" transform="translate(-72.233 -68.446)" fill="#363636"/>
    <path id="Path_350" data-name="Path 350" d="M828.86,764.974s-19.737,39.473-6.579,42.763,27.96-1.645,29.6-3.289,24.671-8.224,27.96-4.934,3.289-13.158,3.289-13.158Z" transform="translate(-68.976 -68.457)" fill="#363636"/>
    <path id="Path_351" data-name="Path 351" d="M845.575,709.359s-31.249,42.763-8.224,54.276,133.222,11.513,141.446,0,11.513-47.7,0-50.986S845.575,709.359,845.575,709.359Z" transform="translate(-69.244 -67.118)" fill="#2f2e41"/>
    <path id="Path_352" data-name="Path 352" d="M845.575,709.359s-31.249,42.763-8.224,54.276,133.222,11.513,141.446,0,11.513-47.7,0-50.986S845.575,709.359,845.575,709.359Z" transform="translate(-69.244 -67.118)" opacity="0.2"/>
    <ellipse id="Ellipse_55" data-name="Ellipse 55" cx="37.828" cy="37.828" rx="37.828" ry="37.828" transform="translate(797.713 372.507)" fill="#ffb9b9"/>
    <path id="Path_353" data-name="Path 353" d="M845.987,532.24l32.894-6.579s8.224,26.315,34.539,21.381,32.894-21.381,32.894-21.381,19.737,8.224,21.381,8.224,23.026,8.223,23.026,13.158-24.671,54.276-24.671,54.276l3.289,88.815-121.709-3.29,8.224-87.17Z" transform="translate(-69.656 -62.695)" fill="#afafaf"/>
    <path id="Path_354" data-name="Path 354" d="M827.312,576.22s-9.868,87.17-3.289,93.749,32.894,24.671,32.894,24.671V674.9l-13.158-24.671,13.158-57.565Z" transform="translate(-69.072 -63.912)" fill="#ffb9b9"/>
    <path id="Path_355" data-name="Path 355" d="M1001.045,573.693s-5.757,89.637-5.757,92.927-14.8,14.8-19.736,14.8-8.224-8.224-8.224-8.224l11.513-13.158-8.224-67.433Z" transform="translate(-72.578 -63.852)" fill="#ffb9b9"/>
    <path id="Path_356" data-name="Path 356" d="M983.979,702.167s74.012-41.118,75.657,0-37.829,57.565-37.829,57.565-101.972,30.578-106.084,19.4-12.335-29.269-5.757-30.914,14.8-4.934,18.092-1.645S972.466,721.9,972.466,721.9Z" transform="translate(-71.137 -66.505)" fill="#292929"/>
    <path id="Path_357" data-name="Path 357" d="M1020.121,697.562s-14.8,6.579-19.737,11.513-26.316,13.158-26.316,13.158" transform="translate(-72.74 -66.834)" fill="none" stroke="#000" stroke-miterlimit="10" stroke-width="2" opacity="0.2"/>
    <path id="Path_358" data-name="Path 358" d="M855.191,535.692l-9.868-3.289s-36.184,37.828-24.671,47.7,18.092,13.158,21.381,16.447,19.737,4.934,19.737,4.934Z" transform="translate(-68.991 -62.857)" fill="#afafaf"/>
    <path id="Path_359" data-name="Path 359" d="M978.557,544.2l14.8,3.289s11.513,24.671,14.8,27.96-4.934,1.645-9.868,8.224-9.868,18.092-19.737,18.092-23.026-16.447-23.026-16.447Z" transform="translate(-72.294 -63.141)" fill="#afafaf"/>
    <path id="Path_360" data-name="Path 360" d="M847.222,717.2s-62.5-44.407-83.88-11.513,92.1,77.3,108.551,83.88,31.25,13.158,31.25,13.158,14.8-36.184,14.8-42.762-11.513-6.579-14.8-6.579-18.092-3.289-21.381-8.224S847.222,717.2,847.222,717.2Z" transform="translate(-67.601 -66.738)" fill="#292929"/>
    <path id="Path_361" data-name="Path 361" d="M813.966,705.988s16.447,13.158,31.25,16.447,19.737,11.513,19.737,11.513" transform="translate(-68.885 -67.037)" fill="none" stroke="#000" stroke-miterlimit="10" stroke-width="2" opacity="0.2"/>
    <path id="Path_362" data-name="Path 362" d="M837.732,642.4l1.314,69.638a8.718,8.718,0,0,0,8.814,8.553l129.592-1.456a8.718,8.718,0,0,0,8.605-8.215l3.934-68.182a8.718,8.718,0,0,0-8.7-9.22H846.448a8.718,8.718,0,0,0-8.716,8.882Z" transform="translate(-69.457 -65.292)" fill="#4d4d4d"/>
    <path id="Path_363" data-name="Path 363" d="M908.226,423.04s2.108,7.026-9.836,13.349-15.457,30.212-1.405,37.238,18.268,16.16,11.242,22.483-19.673,23.186-2.81,27.4,18.97,12.647,14.052,16.16,11.242-6.323,11.242-6.323,2.81,16.862,17.565,12.647S977.75,465.149,961.3,445.413C946.01,427.061,908.226,423.04,908.226,423.04Z" transform="translate(-70.664 -60.224)" fill="#2f2e41"/>
    <path id="Path_364" data-name="Path 364" d="M904.13,415.511c0-10.293,30.8-2.9,44,11.475,9.143,9.952,23.031,24.925,11.393,35.48s19.947,24.39,28.418,28.585,25.2,17.023,10.094,25.629-14.858,17.293-9.175,19.35-12.53-3.058-12.53-3.058,1.84,17-13.5,16.914-59.368-84.412-48.851-107.852C923.756,420.238,904.13,415.511,904.13,415.511Z" transform="translate(-71.056 -59.927)" fill="#2f2e41"/>
    <path id="Path_365" data-name="Path 365" d="M909.846,413.314c-41.182-2.48-45.315,28.519-45.315,28.519.285,17.939,28.773,9.2,36.685,11.872,9.546-6.867,27.946-19.86,41.105-29.132A62.237,62.237,0,0,0,909.846,413.314Z" transform="translate(-70.102 -59.986)" fill="#2f2e41"/>
    <path id="Path_366" data-name="Path 366" d="M892.326,608.638S855.385,435.51,624.169,309.92" transform="translate(-64.314 -57.5)" fill="none" stroke="#3f3d56" stroke-miterlimit="10" stroke-width="2"/>
    <path id="Path_367" data-name="Path 367" d="M583.15,254.891l.463,1.9-9.352,2.268,2.946,9.163-1.86.6-3.587-11.161Z" transform="translate(-13.768 -6.247)" fill="#3f3d56"/>
    <path id="Path_368" data-name="Path 368" d="M117.537,796.042c0,21.928-13.035,29.584-29.115,29.584q-.559,0-1.116-.013c-.745-.016-1.483-.051-2.212-.1-14.512-1.027-25.788-9.077-25.788-29.47,0-21.1,26.969-47.734,28.995-49.705l0,0,.117-.114S117.537,774.115,117.537,796.042Z" transform="translate(-50.712 -68.006)" fill="#00d9a7"/>
    <path id="Path_369" data-name="Path 369" d="M87.764,822.271l10.649-14.88L87.737,823.905l-.028,1.708c-.745-.016-1.483-.052-2.212-.1l1.148-21.938-.009-.17.02-.032.108-2.072-10.7-16.554,10.736,15,.025.44.867-16.576L78.527,766.5,87.8,780.7l.9-34.365,0-.117v.114l-.151,27.1,9.122-10.743-9.159,13.077-.241,14.841,8.517-14.243L88.243,792.79l-.135,8.251,12.364-19.824-12.41,22.7Z" transform="translate(-51.116 -68.006)" fill="#3f3d56"/>
    <path id="Path_370" data-name="Path 370" d="M259.878,791.336l6.228-4.627s4.123,23.028-.478,26.479-21.852,9.2-21.852,16.1-39.1,16.1-40.253,5.75,3.45-16.1,3.45-16.1,18.4-18.4,20.7-21.852,8.051-10.351,8.051-10.351Z" transform="translate(-54.181 -68.981)" fill="#2f2e41"/>
    <path id="Path_371" data-name="Path 371" d="M167,497.7s.173,1.012.471,2.864c.276,1.645.656,3.968,1.116,6.831,4.83,29.477,18.919,116.25,17.964,119.114-1.15,3.45-9.2,16.1,0,19.551.886.333,1.84,1.414,2.864,3.117a66.846,66.846,0,0,1,4.865,11.478c5.486,15.917,11.351,41.391,14.744,59.034,1.484,7.752,2.5,13.985,2.795,17.251a9.382,9.382,0,0,1,.035,2.277c-1.15,4.6,6.9,20.7,10.351,25.3s9.2,9.2,8.051,13.8,28.752,17.251,32.2,9.2,3.45-12.651,4.6-14.951,2.3-18.4-3.45-20.7-2.3-42.553-8.051-50.6c-1.921-2.68-4.853-11.754-7.924-22.668-1.207-4.278-2.427-8.833-3.623-13.4-4.853-18.712-9.155-37.539-9.155-37.539L236,493.1l-63.255-8.051-1.622,3.577-3.232,7.1Z" transform="translate(-53.305 -61.717)" fill="#2e2e2e"/>
    <path id="Path_372" data-name="Path 372" d="M162.4,724.177s-9.2-9.2-13.8,0-9.2,44.853-17.251,52.9-18.4,48.3-6.9,50.6,24.152-3.45,25.3-10.351,25.3-42.553,25.3-46-16.1-16.1-16.1-16.1Z" transform="translate(-52.157 -67.377)" fill="#2f2e41"/>
    <path id="Path_373" data-name="Path 373" d="M304.715,433.12s-14.951,134.56-18.4,147.211-21.852,60.954-27.6,69.005-42.553,73.605-47.153,77.056-13.8,12.651-13.8,12.651-17.251,17.251-19.551,20.7-21.852-6.9-23-13.8,1.15-18.4,2.3-23-2.3-11.5,1.15-14.951,20.7-20.7,20.7-28.752,29.9-55.2,41.4-65.555,9.2-27.6,9.2-27.6V515.926L166.7,496.375s3.45-55.2,11.5-55.2S292.064,422.77,304.715,433.12Z" transform="translate(-53.014 -60.39)" fill="#2e2e2e"/>
    <ellipse id="Ellipse_56" data-name="Ellipse 56" cx="37.953" cy="37.953" rx="37.953" ry="37.953" transform="translate(120.592 104.76)" fill="#9f616a"/>
    <path id="Path_374" data-name="Path 374" d="M224.671,227.663s4.6,17.251,10.351,21.852-14.951,24.152-14.951,24.152l-39.1,2.3-6.9-21.852s12.651-25.3,9.2-41.4S224.671,227.663,224.671,227.663Z" transform="translate(-53.476 -55.048)" fill="#9f616a"/>
    <path id="Path_375" data-name="Path 375" d="M240.6,248.18s-10.351,1.15-12.651,4.6-18.4,13.8-31.052,11.5-20.7-5.75-23-4.6-6.9,25.3-6.9,25.3l12.651,36.8-2.3,101.207-3.45,27.6s-6.9-9.2,20.7-3.45,63.255-4.6,74.756-5.75,31.052-4.6,32.2-11.5-3.45-32.2-3.45-32.2l-18.4-77.056-11.5-41.4Z" transform="translate(-53.305 -56.013)" fill="#717171"/>
    <path id="Path_376" data-name="Path 376" d="M231.271,242.8s9.728-5.16,13.179-.56,47.153,11.5,47.153,14.951,9.2,96.607,6.9,104.658,4.6,17.251,4.6,17.251l8.051,34.5s21.852,65.555,12.651,67.855-17.251,0-20.7,0-2.3-43.7-11.5-55.2-21.852-40.253-24.152-46-31.052-85.106-29.9-94.307S231.271,242.8,231.271,242.8Z" transform="translate(-54.853 -55.824)" fill="#d0cde1"/>
    <path id="Path_377" data-name="Path 377" d="M181.125,248.18s-9.2,0-10.351,2.3-12.651,17.251-17.251,20.7-20.7,18.4-20.7,21.852,33.352,28.752,33.352,28.752,13.8,67.855,6.9,90.857-17.251,78.206-12.651,81.656,14.951,4.6,14.951,0,6.9-54.054,12.651-64.4,23-75.906,16.1-94.307S181.125,248.18,181.125,248.18Z" transform="translate(-52.482 -56.013)" fill="#d0cde1"/>
    <path id="Path_378" data-name="Path 378" d="M335.858,364.847s1.15,35.653-11.5,54.054-20.7,39.1-20.7,39.1-20.7-5.75-24.152-12.651-25.3-1.15-25.3-3.45,26.452-13.8,28.752-16.1,10.351-2.3,14.951-6.9,5.75-14.951,5.75-14.951l4.6-29.9Z" transform="translate(-55.405 -58.823)" fill="#9f616a"/>
    <path id="Path_379" data-name="Path 379" d="M237.862,172.652c2.92-.265,5.931-.557,8.511-1.949,5.782-3.118,7.315-12,2.914-16.874a21.806,21.806,0,0,0-4.043-3.251l-8.742-5.95c-3.866-2.632-7.824-5.307-12.334-6.547-4.079-1.122-8.387-1.007-12.609-.744-8.2.509-16.443,1.562-24.153,4.392s-14.9,7.564-19.57,14.32c-7.4,10.71-7.5,25.154-3.427,37.518s11.821,23.131,19.451,33.679l3.959-19.318c.353-1.721.809-3.606,2.24-4.625,3.557-2.531,7.908,2.666,12.273,2.632,2.8-.022,5.16-2.329,6.223-4.924s1.133-5.47,1.379-8.264c.521-5.918,2.589-14.153,8.194-17.417C223.351,172.287,231.992,173.185,237.862,172.652Z" transform="translate(-53.178 -53.34)" fill="#2f2e41"/>
    <path id="Path_380" data-name="Path 380" d="M237.382,498.956S233.5,611.311,231.2,614.761s0-116.158,0-116.158Z" transform="translate(-54.827 -62.043)" opacity="0.1"/>
    <path id="Path_381" data-name="Path 381" d="M283.664,257.607h9.2s39.1,52.9,34.5,56.354,0,12.651,0,12.651l9.2,17.251s11.5,10.351,8.051,12.651-8.051,11.5-8.051,11.5-23-3.45-29.9,10.351l-14.916-18.831Z" transform="translate(-56.115 -56.24)" fill="#d0cde1"/>
    <rect id="Rectangle_326" data-name="Rectangle 326" width="34.157" height="63.653" transform="translate(199.228 231.42) rotate(-22.438)" fill="#2f2e41"/>
    <ellipse id="Ellipse_57" data-name="Ellipse 57" cx="6.831" cy="6.276" rx="6.831" ry="6.276" transform="translate(215.995 243.896) rotate(-22.438)" fill="#919191"/>
    <path id="Path_382" data-name="Path 382" d="M257.619,350.664s-82.806,69.005-96.607,47.153,14.951-40.253,14.951-40.253,25.3,1.15,54.054-17.251l28.752-12.651s26.248-37.474,35.193-23.2S278.693,343.564,257.619,350.664Z" transform="translate(-53.071 -57.29)" fill="#9f616a"/>
    <path id="Path_383" data-name="Path 383" d="M145.358,289.426l-12.651,4.6v34.5l-4.6,6.9s1.15,13.8,4.6,17.251,10.351,2.3,8.051,10.351a43.591,43.591,0,0,0-1.15,16.1s20.7,26.452,21.852,23,17.251-46,19.551-46-23-66.7-23-66.7Z" transform="translate(-52.369 -57.006)" fill="#d0cde1"/>
    <path id="Path_384" data-name="Path 384" d="M300.148,467.469s11.892-11.5,5.946-12.076-26.647-12.076-30.1-6.326S300.148,467.469,300.148,467.469Z" transform="translate(-55.923 -60.812)" fill="#2f2e41"/>
    <ellipse id="Ellipse_58" data-name="Ellipse 58" cx="16.422" cy="9.005" rx="16.422" ry="9.005" transform="translate(453.969 169.513)" fill="#57b894"/>
    <path id="Path_385" data-name="Path 385" d="M594.731,262.824q-56.115-21.194-112.231,0V216.956a194.246,194.246,0,0,1,112.231,0Z" transform="translate(-60.903 -55.062)" fill="none" stroke="#3f3d56" stroke-miterlimit="10" stroke-width="2"/>
    <path id="Path_386" data-name="Path 386" d="M579.5,253.476q-40.5-15.3-81,0v-33.1a140.2,140.2,0,0,1,81,0Z" transform="translate(-61.288 -55.2)" fill="none" stroke="#3f3d56" stroke-miterlimit="10" stroke-width="2"/>
    <ellipse id="Ellipse_59" data-name="Ellipse 59" cx="16.422" cy="9.005" rx="16.422" ry="9.005" transform="translate(459.266 165.275)" fill="none" stroke="#3f3d56" stroke-miterlimit="10" stroke-width="2"/>
    <ellipse id="Ellipse_60" data-name="Ellipse 60" cx="16.591" cy="8.783" rx="16.591" ry="8.783" transform="matrix(0.98, -0.2, 0.2, 0.98, 462.822, 228.382)" fill="#57b894"/>
    <path id="Path_387" data-name="Path 387" d="M609.947,305.972q-59.22-9.544-109.964,22.443l-9.172-44.942A194.245,194.245,0,0,1,600.774,261.03Z" transform="translate(-61.103 -56.303)" fill="none" stroke="#3f3d56" stroke-miterlimit="10" stroke-width="2"/>
    <path id="Path_388" data-name="Path 388" d="M593.144,299.962q-42.741-6.888-79.365,16.2l-6.62-32.436a140.2,140.2,0,0,1,79.365-16.2Z" transform="translate(-61.496 -56.465)" fill="none" stroke="#3f3d56" stroke-miterlimit="10" stroke-width="2"/>
    <ellipse id="Ellipse_61" data-name="Ellipse 61" cx="16.591" cy="8.783" rx="16.591" ry="8.783" transform="matrix(0.98, -0.2, 0.2, 0.98, 467.779, 223.386)" fill="none" stroke="#3f3d56" stroke-miterlimit="10" stroke-width="2"/>
    <ellipse id="Ellipse_62" data-name="Ellipse 62" cx="8.783" cy="16.591" rx="8.783" ry="16.591" transform="translate(460.236 295.87) rotate(-86.019)" fill="#57b894"/>
    <path id="Path_389" data-name="Path 389" d="M599.673,379.644q-54.509-25.038-111.96-7.791L490.9,326.1a194.246,194.246,0,0,1,111.96,7.791Z" transform="translate(-61.028 -57.773)" fill="none" stroke="#3f3d56" stroke-miterlimit="10" stroke-width="2"/>
    <path id="Path_390" data-name="Path 390" d="M585.155,369.238q-39.341-18.071-80.806-5.623l2.3-33.025a140.194,140.194,0,0,1,80.806,5.623Z" transform="translate(-61.429 -57.914)" fill="none" stroke="#3f3d56" stroke-miterlimit="10" stroke-width="2"/>
    <ellipse id="Ellipse_63" data-name="Ellipse 63" cx="8.783" cy="16.591" rx="8.783" ry="16.591" transform="translate(466.349 292.383) rotate(-86.019)" fill="none" stroke="#3f3d56" stroke-miterlimit="10" stroke-width="2"/>
    <path id="Path_391" data-name="Path 391" d="M462.388,265.214S390.662,255.4,339.44,285.419" transform="translate(-57.458 -56.386)" fill="none" stroke="#3f3d56" stroke-miterlimit="10" stroke-width="2"/>
    <path id="Path_392" data-name="Path 392" d="M290.621,224.459l1.863.589-2.912,9.173,9.363,2.234-.456,1.9-11.4-2.724Z" transform="translate(-6.913 -5.514)" fill="#3f3d56"/>
  </g>
</svg>
