<svg xmlns="http://www.w3.org/2000/svg" width="353" height="256.18" viewBox="0 0 353 256.18">
  <g id="Group_472" data-name="Group 472" transform="translate(-50 -387.723)">
    <g id="Group_469" data-name="Group 469" transform="translate(50 387.723)">
      <ellipse id="Ellipse_52" data-name="Ellipse 52" cx="119.777" cy="119.777" rx="119.777" ry="119.777" transform="translate(31.554 0)" fill="#fff"/>
      <ellipse id="Ellipse_53" data-name="Ellipse 53" cx="47.538" cy="7.606" rx="47.538" ry="7.606" transform="translate(0 240.968)" fill="#fff"/>
      <ellipse id="Ellipse_54" data-name="Ellipse 54" cx="73.555" cy="11.769" rx="73.555" ry="11.769" transform="translate(205.89 224.911)" fill="#fff"/>
      <path id="Path_345" data-name="Path 345" d="M856.828,435.945s.626,2.087-2.922,3.966-4.592,8.976-.417,11.063,5.427,4.8,3.34,6.68-5.845,6.889-.835,8.141,5.636,3.757,4.175,4.8,3.34-1.879,3.34-1.879.835,5.01,5.219,3.757,16.7-25.049,10.437-28.389S856.828,435.945,856.828,435.945Z" transform="translate(-593.726 -312.387)" fill="#fff"/>
      <path id="Path_346" data-name="Path 346" d="M876.016,492.359s2.165,7.578-1.624,8.12a14.792,14.792,0,0,0-6.5,2.707l7.037,9.2h12.992l8.12-8.12s-10.826-8.12-8.661-12.992S876.016,492.359,876.016,492.359Z" transform="translate(-605.348 -348.646)" fill="#fff"/>
      <path id="Path_347" data-name="Path 347" d="M876.016,492.359s2.165,7.578-1.624,8.12a14.792,14.792,0,0,0-6.5,2.707l7.037,9.2h12.992l8.12-8.12s-10.826-8.12-8.661-12.992S876.016,492.359,876.016,492.359Z" transform="translate(-605.348 -348.646)" fill="#fff" opacity="0.1"/>
      <path id="Path_348" data-name="Path 348" d="M852.787,723.894l12.45,4.33,8.661.541-.541-7.578L855.494,715.9Z" transform="translate(-578.871 -485.991)" fill="#fff"/>
      <path id="Path_349" data-name="Path 349" d="M953,771.686s0,7.579,1.083,7.579,15.7-1.624,20.029,0,10.826-4.331,7.578-7.579-8.546-8.12-11.851-7.037S953,768.438,953,768.438Z" transform="translate(-663.118 -535.407)" fill="#fff"/>
      <path id="Path_350" data-name="Path 350" d="M821.412,764.974s-6.5,12.992-2.165,14.074,9.2-.541,9.744-1.083,8.12-2.707,9.2-1.624,1.083-4.331,1.083-4.331Z" transform="translate(-571.314 -535.732)" fill="#fff"/>
      <path id="Path_351" data-name="Path 351" d="M834.38,709.359s-10.285,14.074-2.707,17.864,43.847,3.789,46.554,0,3.789-15.7,0-16.781S834.38,709.359,834.38,709.359Z" transform="translate(-578.868 -497.981)" fill="#fff"/>
      <path id="Path_352" data-name="Path 352" d="M834.38,709.359s-10.285,14.074-2.707,17.864,43.847,3.789,46.554,0,3.789-15.7,0-16.781S834.38,709.359,834.38,709.359Z" transform="translate(-578.868 -497.981)" fill="#fff" opacity="0.2"/>
      <ellipse id="Ellipse_55" data-name="Ellipse 55" cx="12.45" cy="12.45" rx="12.45" ry="12.45" transform="translate(262.548 122.602)" fill="#fff"/>
      <path id="Path_353" data-name="Path 353" d="M845.987,527.827l10.826-2.165s2.707,8.661,11.368,7.037,10.826-7.037,10.826-7.037,6.5,2.707,7.037,2.707,7.579,2.707,7.579,4.331-8.12,17.864-8.12,17.864l1.083,29.231-40.058-1.083,2.707-28.69Z" transform="translate(-590.476 -373.287)" fill="#fff"/>
      <path id="Path_354" data-name="Path 354" d="M823.588,576.221s-3.248,28.69-1.083,30.855,10.826,8.12,10.826,8.12v-6.5L829,600.58l4.331-18.946Z" transform="translate(-574.031 -407.606)" fill="#fff"/>
      <path id="Path_355" data-name="Path 355" d="M978.425,573.693s-1.895,29.5-1.895,30.585-4.872,4.872-6.5,4.872-2.707-2.707-2.707-2.707l3.789-4.331-2.707-22.194Z" transform="translate(-672.842 -405.89)" fill="#fff"/>
      <path id="Path_356" data-name="Path 356" d="M932.674,689.907s24.359-13.533,24.9,0-12.45,18.946-12.45,18.946-33.562,10.064-34.915,6.385-4.06-9.633-1.895-10.175,4.872-1.624,5.954-.541,14.616-8.12,14.616-8.12Z" transform="translate(-632.233 -480.694)" fill="#fff"/>
      <path id="Path_357" data-name="Path 357" d="M989.226,697.562s-4.872,2.165-6.5,3.789-8.661,4.331-8.661,4.331" transform="translate(-677.418 -489.973)" fill="none" opacity="0.2"/>
      <path id="Path_358" data-name="Path 358" d="M830.5,533.485l-3.248-1.083s-11.909,12.45-8.12,15.7,5.955,4.331,7.037,5.413,6.5,1.624,6.5,1.624Z" transform="translate(-571.743 -377.863)" fill="#fff"/>
      <path id="Path_359" data-name="Path 359" d="M963.11,544.2l4.872,1.083s3.789,8.12,4.872,9.2-1.624.541-3.248,2.707-3.248,5.955-6.5,5.955-7.578-5.413-7.578-5.413Z" transform="translate(-664.834 -385.871)" fill="#fff"/>
      <path id="Path_360" data-name="Path 360" d="M789.156,701.338s-20.57-14.616-27.607-3.789,30.314,25.442,35.727,27.607,10.285,4.331,10.285,4.331,4.872-11.909,4.872-14.074-3.789-2.165-4.872-2.165-5.955-1.083-7.037-2.707S789.156,701.338,789.156,701.338Z" transform="translate(-532.563 -487.253)" fill="#fff"/>
      <path id="Path_361" data-name="Path 361" d="M813.966,705.989s5.413,4.33,10.285,5.413,6.5,3.789,6.5,3.789" transform="translate(-568.74 -495.693)" fill="none" opacity="0.2"/>
      <path id="Path_362" data-name="Path 362" d="M837.731,636.444l.432,22.92a2.869,2.869,0,0,0,2.9,2.815l42.652-.479a2.869,2.869,0,0,0,2.832-2.7l1.295-22.44a2.869,2.869,0,0,0-2.864-3.034H840.6a2.869,2.869,0,0,0-2.869,2.923Z" transform="translate(-584.871 -446.502)" fill="#fff"/>
      <path id="Path_363" data-name="Path 363" d="M894.558,423.04s.694,2.312-3.237,4.394-5.087,9.943-.463,12.256,6.012,5.319,3.7,7.4-6.475,7.631-.925,9.019,6.244,4.162,4.625,5.319,3.7-2.081,3.7-2.081.925,5.55,5.781,4.162,9.7-26.608,4.288-33.1C906.993,424.363,894.558,423.04,894.558,423.04Z" transform="translate(-618.894 -303.627)" fill="#fff"/>
      <path id="Path_364" data-name="Path 364" d="M904.13,412.292c0-3.388,10.137-.954,14.482,3.777,3.009,3.276,7.58,8.2,3.75,11.677s6.565,8.027,9.353,9.408,8.292,5.6,3.322,8.435-4.89,5.692-3.02,6.369-4.124-1.007-4.124-1.007.606,5.594-4.445,5.567-19.539-27.782-16.078-35.5C910.589,413.848,904.13,412.292,904.13,412.292Z" transform="translate(-629.943 -295.259)" fill="#fff"/>
      <path id="Path_365" data-name="Path 365" d="M879.446,413.22c-13.554-.816-14.914,9.386-14.914,9.386.094,5.9,9.47,3.027,12.074,3.908,3.142-2.26,9.2-6.536,13.529-9.588A20.484,20.484,0,0,0,879.446,413.22Z" transform="translate(-603.064 -296.93)" fill="#fff"/>
      <path id="Path_366" data-name="Path 366" d="M712.427,408.236s-12.158-56.981-88.257-98.316" transform="translate(-439.906 -226.842)" fill="none"/>
      <path id="Path_367" data-name="Path 367" d="M575.509,254.891l.152.625-3.078.746.97,3.016-.612.2L571.76,255.8Z" transform="translate(-388.11 -173.056)" fill="#fff"/>
      <path id="Path_368" data-name="Path 368" d="M78.471,762.617c0,7.217-4.29,9.737-9.583,9.737q-.184,0-.367,0c-.245-.005-.488-.017-.728-.033-4.776-.338-8.487-2.987-8.487-9.7,0-6.946,8.876-15.711,9.543-16.359h0l.039-.037S78.471,755.4,78.471,762.617Z" transform="translate(-56.477 -523.002)" fill="#fff"/>
      <path id="Path_369" data-name="Path 369" d="M79.913,771.25l3.5-4.9L79.9,771.788l-.009.562c-.245-.005-.488-.017-.728-.033l.378-7.22,0-.056.006-.01.036-.682L76.061,758.9l3.533,4.937.008.145.286-5.455-3.016-5.63,3.052,4.672.3-11.31v0l-.05,8.919,3-3.536-3.014,4.3-.079,4.884,2.8-4.688-2.815,5.406-.044,2.715,4.069-6.525-4.085,7.472Z" transform="translate(-67.851 -523.001)" fill="#fff"/>
      <path id="Path_370" data-name="Path 370" d="M221.948,788.232l2.05-1.523s1.357,7.579-.157,8.715-7.192,3.028-7.192,5.3-12.87,5.3-13.248,1.893a7.506,7.506,0,0,1,1.136-5.3s6.056-6.056,6.813-7.192,2.65-3.407,2.65-3.407Z" transform="translate(-154.247 -550.486)" fill="#fff"/>
      <path id="Path_371" data-name="Path 371" d="M167,489.214s.057.333.155.943c.091.541.216,1.306.367,2.248,1.59,9.7,6.227,38.261,5.913,39.2-.379,1.135-3.028,5.3,0,6.435a2.348,2.348,0,0,1,.943,1.026,22,22,0,0,1,1.6,3.778,165.973,165.973,0,0,1,4.853,19.43c.488,2.551.821,4.6.92,5.678a3.087,3.087,0,0,1,.011.75c-.379,1.514,2.271,6.813,3.407,8.328s3.028,3.028,2.65,4.542,9.463,5.678,10.6,3.028,1.136-4.164,1.514-4.921.757-6.056-1.136-6.813-.757-14.005-2.65-16.655c-.632-.882-1.6-3.869-2.608-7.461-.4-1.408-.8-2.907-1.192-4.41-1.6-6.159-3.013-12.355-3.013-12.355l.378-44.287-20.819-2.65-.534,1.177-1.064,2.336Z" transform="translate(-129.578 -345.72)" fill="#fff"/>
      <path id="Path_372" data-name="Path 372" d="M133.5,721.434s-3.028-3.028-4.542,0-3.028,14.762-5.678,17.412-6.056,15.9-2.271,16.655,7.949-1.136,8.328-3.407,8.327-14.005,8.327-15.141-5.3-5.3-5.3-5.3Z" transform="translate(-97.219 -505.264)" fill="#fff"/>
      <path id="Path_373" data-name="Path 373" d="M204.2,431s-4.921,44.287-6.056,48.451-7.192,20.062-9.085,22.711-14.005,24.225-15.519,25.361S169,531.688,169,531.688s-5.678,5.678-6.435,6.813-7.192-2.271-7.57-4.542.379-6.056.757-7.57-.757-3.785.379-4.921,6.813-6.813,6.813-9.463,9.842-18.169,13.627-21.576,3.028-9.085,3.028-9.085v-23.09l-20.819-6.435s1.136-18.169,3.785-18.169S200.038,427.594,204.2,431Z" transform="translate(-121.36 -308.326)" fill="#fff"/>
      <ellipse id="Ellipse_56" data-name="Ellipse 56" cx="12.491" cy="12.491" rx="12.491" ry="12.491" transform="translate(39.69 34.479)" fill="#fff"/>
      <path id="Path_374" data-name="Path 374" d="M190.722,214.526s1.514,5.678,3.407,7.192-4.921,7.949-4.921,7.949l-12.87.757-2.271-7.192s4.164-8.328,3.028-13.627S190.722,214.526,190.722,214.526Z" transform="translate(-134.377 -157.713)" fill="#fff"/>
      <path id="Path_375" data-name="Path 375" d="M191.222,248.18s-3.407.379-4.164,1.514-6.056,4.542-10.22,3.785-6.813-1.893-7.57-1.514S167,260.293,167,260.293l4.164,12.113-.757,33.31-1.136,9.085s-2.271-3.028,6.813-1.136,20.819-1.514,24.6-1.893,10.22-1.514,10.6-3.785-1.136-10.6-1.136-10.6l-6.056-25.361L200.306,258.4Z" transform="translate(-129.578 -184.933)" fill="#fff"/>
      <path id="Path_376" data-name="Path 376" d="M231.271,241.144s3.2-1.7,4.337-.184,15.519,3.785,15.519,4.921,3.028,31.8,2.271,34.446S254.913,286,254.913,286l2.65,11.356s7.192,21.576,4.164,22.333-5.678,0-6.813,0-.757-14.384-3.785-18.169-7.192-13.248-7.949-15.141-10.22-28.011-9.842-31.039S231.271,241.144,231.271,241.144Z" transform="translate(-173.207 -179.605)" fill="#fff"/>
      <path id="Path_377" data-name="Path 377" d="M148.719,248.18s-3.028,0-3.407.757a41.428,41.428,0,0,1-5.678,6.813c-1.514,1.136-6.813,6.056-6.813,7.192s10.977,9.463,10.977,9.463,4.542,22.333,2.271,29.9-5.678,25.74-4.164,26.875,4.921,1.514,4.921,0,2.271-17.791,4.164-21.2,7.57-24.982,5.3-31.039S148.719,248.18,148.719,248.18Z" transform="translate(-106.379 -184.933)" fill="#fff"/>
      <path id="Path_378" data-name="Path 378" d="M281.078,364.847s.379,11.734-3.785,17.791a71.937,71.937,0,0,0-6.813,12.87s-6.813-1.893-7.949-4.164-8.327-.379-8.327-1.135,8.706-4.542,9.463-5.3,3.407-.757,4.921-2.271,1.893-4.921,1.893-4.921l1.514-9.842Z" transform="translate(-188.773 -264.126)" fill="#fff"/>
      <path id="Path_379" data-name="Path 379" d="M186.778,148.841a7.2,7.2,0,0,0,2.8-.641,3.751,3.751,0,0,0,.959-5.554,7.176,7.176,0,0,0-1.331-1.07l-2.877-1.958a14.074,14.074,0,0,0-4.059-2.155,12.671,12.671,0,0,0-4.15-.245,28.04,28.04,0,0,0-7.949,1.445,13.3,13.3,0,0,0-6.441,4.713c-2.436,3.525-2.47,8.279-1.128,12.348s3.891,7.613,6.4,11.085l1.3-6.358a2.347,2.347,0,0,1,.737-1.522c1.171-.833,2.6.877,4.039.866a2.419,2.419,0,0,0,2.048-1.621,9.236,9.236,0,0,0,.454-2.72c.171-1.948.852-4.658,2.7-5.732C182,148.721,184.846,149.017,186.778,148.841Z" transform="translate(-125.993 -109.573)" fill="#fff"/>
      <path id="Path_380" data-name="Path 380" d="M232.547,498.719s-1.278,36.979-2.035,38.115,0-38.231,0-38.231Z" transform="translate(-172.463 -354.919)" fill="#fff" opacity="0.1"/>
      <path id="Path_381" data-name="Path 381" d="M283.664,257.607h3.028s12.87,17.412,11.356,18.548,0,4.164,0,4.164L301.076,286s3.785,3.407,2.65,4.164-2.65,3.785-2.65,3.785-7.57-1.136-9.842,3.407l-4.909-6.2Z" transform="translate(-208.771 -191.332)" fill="#fff"/>
      <rect id="Rectangle_326" data-name="Rectangle 326" width="11.242" height="20.95" transform="translate(65.571 76.167) rotate(-22.438)" fill="#fff"/>
      <ellipse id="Ellipse_57" data-name="Ellipse 57" cx="2.248" cy="2.065" rx="2.248" ry="2.065" transform="translate(71.09 80.273) rotate(-22.438)" fill="#fff"/>
      <path id="Path_382" data-name="Path 382" d="M190.293,317.491s-27.254,22.711-31.8,15.519,4.921-13.248,4.921-13.248,8.328.379,17.791-5.678l9.463-4.164s8.639-12.334,11.583-7.637S197.229,315.154,190.293,317.491Z" transform="translate(-122.971 -220.934)" fill="#fff"/>
      <path id="Path_383" data-name="Path 383" d="M133.785,289.426l-4.164,1.514V302.3l-1.514,2.271s.379,4.542,1.514,5.678,3.407.757,2.65,3.407a14.346,14.346,0,0,0-.379,5.3s6.813,8.706,7.192,7.57,5.678-15.141,6.435-15.141-7.57-21.954-7.57-21.954Z" transform="translate(-103.18 -212.93)" fill="#fff"/>
      <path id="Path_384" data-name="Path 384" d="M283.745,454.047s3.914-3.785,1.957-3.974-8.77-3.975-9.906-2.082S283.745,454.047,283.745,454.047Z" transform="translate(-203.364 -320.205)" fill="#fff"/>
      <ellipse id="Ellipse_58" data-name="Ellipse 58" cx="5.405" cy="2.964" rx="5.405" ry="2.964" transform="translate(149.413 55.791)" fill="#fff"/>
      <path id="Path_385" data-name="Path 385" d="M519.438,226.5a50.645,50.645,0,0,0-36.938,0V211.4a63.931,63.931,0,0,1,36.938,0Z" transform="translate(-343.741 -158.116)" fill="none"/>
      <path id="Path_386" data-name="Path 386" d="M525.16,227.257a36.553,36.553,0,0,0-26.66,0v-10.9a46.142,46.142,0,0,1,26.66,0Z" transform="translate(-354.602 -161.999)" fill="none"/>
      <ellipse id="Ellipse_59" data-name="Ellipse 59" cx="5.405" cy="2.964" rx="5.405" ry="2.964" transform="translate(151.157 54.397)" fill="none"/>
      <ellipse id="Ellipse_60" data-name="Ellipse 60" cx="5.46" cy="2.891" rx="5.46" ry="2.891" transform="matrix(0.98, -0.2, 0.2, 0.98, 152.327, 75.167)" fill="#fff"/>
      <path id="Path_387" data-name="Path 387" d="M530.022,275.274a50.645,50.645,0,0,0-36.192,7.387l-3.019-14.792A63.932,63.932,0,0,1,527,260.482Z" transform="translate(-349.382 -193.101)" fill="none"/>
      <path id="Path_388" data-name="Path 388" d="M535.459,277.806a36.553,36.553,0,0,0-26.121,5.331l-2.179-10.676a46.142,46.142,0,0,1,26.121-5.331Z" transform="translate(-360.48 -197.665)" fill="none"/>
      <ellipse id="Ellipse_61" data-name="Ellipse 61" cx="5.46" cy="2.891" rx="5.46" ry="2.891" transform="matrix(0.98, -0.2, 0.2, 0.98, 153.958, 73.522)" fill="none"/>
      <ellipse id="Ellipse_62" data-name="Ellipse 62" cx="2.891" cy="5.46" rx="2.891" ry="5.46" transform="translate(151.476 97.379) rotate(-86.019)" fill="#fff"/>
      <path id="Path_389" data-name="Path 389" d="M524.562,340.476a50.645,50.645,0,0,0-36.849-2.564l1.048-15.06a63.931,63.931,0,0,1,36.849,2.564Z" transform="translate(-347.28 -234.54)" fill="none"/>
      <path id="Path_390" data-name="Path 390" d="M530.944,340.969a36.553,36.553,0,0,0-26.6-1.851l.756-10.869a46.142,46.142,0,0,1,26.6,1.851Z" transform="translate(-358.572 -238.504)" fill="none"/>
      <ellipse id="Ellipse_63" data-name="Ellipse 63" cx="2.891" cy="5.46" rx="2.891" ry="5.46" transform="translate(153.488 96.231) rotate(-86.019)" fill="none"/>
      <path id="Path_391" data-name="Path 391" d="M379.906,264.185s-23.607-3.23-40.466,6.65" transform="translate(-246.632 -195.454)" fill="none"/>
      <path id="Path_392" data-name="Path 392" d="M288.243,224.459l.613.194-.958,3.019,3.082.735-.15.625-3.753-.9Z" transform="translate(-194.868 -152.398)" fill="#fff"/>
    </g>
    <g id="Group_471" data-name="Group 471" transform="translate(63 397.34)">
      <ellipse id="Ellipse_52-2" data-name="Ellipse 52" cx="110.137" cy="110.137" rx="110.137" ry="110.137" transform="translate(29.015 0)" fill="#f2f2f2"/>
      <ellipse id="Ellipse_53-2" data-name="Ellipse 53" cx="43.712" cy="6.994" rx="43.712" ry="6.994" transform="translate(0 221.575)" fill="#f2f2f2"/>
      <ellipse id="Ellipse_54-2" data-name="Ellipse 54" cx="67.635" cy="10.822" rx="67.635" ry="10.822" transform="translate(189.32 206.81)" fill="#f2f2f2"/>
      <path id="Path_345-2" data-name="Path 345" d="M856.341,435.945s.576,1.919-2.687,3.647-4.223,8.253-.384,10.173,4.99,4.415,3.071,6.142-5.374,6.334-.768,7.486,5.182,3.455,3.839,4.415,3.071-1.727,3.071-1.727.768,4.607,4.8,3.455,15.355-23.033,9.6-26.1S856.341,435.945,856.341,435.945Z" transform="translate(-614.413 -322.331)" fill="#2f2e41"/>
      <path id="Path_346-2" data-name="Path 346" d="M875.362,492.118s1.991,6.969-1.493,7.466a13.6,13.6,0,0,0-5.973,2.489l6.471,8.462h11.946l7.466-7.466s-9.955-7.466-7.964-11.946S875.362,492.118,875.362,492.118Z" transform="translate(-626.477 -359.97)" fill="#ffb9b9"/>
      <path id="Path_347-2" data-name="Path 347" d="M875.362,492.118s1.991,6.969-1.493,7.466a13.6,13.6,0,0,0-5.973,2.489l6.471,8.462h11.946l7.466-7.466s-9.955-7.466-7.964-11.946S875.362,492.118,875.362,492.118Z" transform="translate(-626.477 -359.97)" opacity="0.1"/>
      <path id="Path_348-2" data-name="Path 348" d="M852.787,723.251l11.448,3.982,7.964.5-.5-6.969L855.276,715.9Z" transform="translate(-600.916 -504.494)" fill="#ffb9b9"/>
      <path id="Path_349-2" data-name="Path 349" d="M953,771.107s0,6.969,1,6.969,14.435-1.493,18.417,0,9.955-3.982,6.969-6.969-7.858-7.466-10.9-6.471S953,768.12,953,768.12Z" transform="translate(-686.448 -553.843)" fill="#363636"/>
      <path id="Path_350-2" data-name="Path 350" d="M821.118,764.974s-5.973,11.946-1.991,12.942,8.462-.5,8.96-1,7.466-2.489,8.462-1.493,1-3.982,1-3.982Z" transform="translate(-591.147 -554.181)" fill="#363636"/>
      <path id="Path_351-2" data-name="Path 351" d="M833.938,709.359s-9.457,12.942-2.489,16.426,40.318,3.484,42.807,0,3.484-14.435,0-15.43S833.938,709.359,833.938,709.359Z" transform="translate(-598.99 -514.992)" fill="#2f2e41"/>
      <path id="Path_352-2" data-name="Path 352" d="M833.938,709.359s-9.457,12.942-2.489,16.426,40.318,3.484,42.807,0,3.484-14.435,0-15.43S833.938,709.359,833.938,709.359Z" transform="translate(-598.99 -514.992)" opacity="0.2"/>
      <ellipse id="Ellipse_55-2" data-name="Ellipse 55" cx="11.448" cy="11.448" rx="11.448" ry="11.448" transform="translate(241.419 112.735)" fill="#ffb9b9"/>
      <path id="Path_353-2" data-name="Path 353" d="M845.987,527.653l9.955-1.991s2.489,7.964,10.453,6.471,9.955-6.471,9.955-6.471,5.973,2.489,6.471,2.489,6.969,2.489,6.969,3.982-7.466,16.426-7.466,16.426l1,26.879-36.834-1,2.489-26.381Z" transform="translate(-611.039 -385.55)" fill="#afafaf"/>
      <path id="Path_354-2" data-name="Path 354" d="M823.441,576.22s-2.987,26.381-1,28.372,9.955,7.466,9.955,7.466v-5.973l-3.982-7.466L832.4,581.2Z" transform="translate(-593.968 -421.176)" fill="#ffb9b9"/>
      <path id="Path_355-2" data-name="Path 355" d="M977.532,573.693s-1.742,27.128-1.742,28.123-4.48,4.48-5.973,4.48-2.489-2.489-2.489-2.489l3.484-3.982-2.489-20.408Z" transform="translate(-696.542 -419.395)" fill="#ffb9b9"/>
      <path id="Path_356-2" data-name="Path 356" d="M930.648,689.423s22.4-12.444,22.9,0S942.1,706.844,942.1,706.844s-30.861,9.254-32.105,5.871-3.733-8.858-1.742-9.356,4.48-1.493,5.475-.5,13.439-7.466,13.439-7.466Z" transform="translate(-654.386 -497.047)" fill="#292929"/>
      <path id="Path_357-2" data-name="Path 357" d="M988.007,697.562s-4.48,1.991-5.973,3.484-7.964,3.982-7.964,3.982" transform="translate(-701.292 -506.679)" fill="none" stroke="#000" stroke-miterlimit="10" stroke-width="2" opacity="0.2"/>
      <path id="Path_358-2" data-name="Path 358" d="M829.527,533.4l-2.986-1s-10.951,11.448-7.466,14.435,5.475,3.982,6.471,4.978,5.973,1.493,5.973,1.493Z" transform="translate(-591.593 -390.3)" fill="#afafaf"/>
      <path id="Path_359-2" data-name="Path 359" d="M962.5,544.2l4.48,1s3.484,7.466,4.48,8.462-1.493.5-2.986,2.489-2.987,5.475-5.973,5.475-6.969-4.978-6.969-4.978Z" transform="translate(-688.229 -398.613)" fill="#afafaf"/>
      <path id="Path_360-2" data-name="Path 360" d="M786.864,700.711s-18.915-13.439-25.385-3.484,27.874,23.394,32.852,25.385,9.457,3.982,9.457,3.982,4.48-10.951,4.48-12.942-3.484-1.991-4.48-1.991-5.475-1-6.471-2.489S786.864,700.711,786.864,700.711Z" transform="translate(-550.92 -503.856)" fill="#292929"/>
      <path id="Path_361-2" data-name="Path 361" d="M813.966,705.988s4.978,3.982,9.457,4.978,5.973,3.484,5.973,3.484" transform="translate(-588.476 -512.617)" fill="none" stroke="#000" stroke-miterlimit="10" stroke-width="2" opacity="0.2"/>
      <path id="Path_362-2" data-name="Path 362" d="M837.731,636.209l.4,21.075a2.638,2.638,0,0,0,2.667,2.588l39.22-.441a2.638,2.638,0,0,0,2.6-2.486l1.19-20.635a2.638,2.638,0,0,0-2.634-2.79H840.369a2.638,2.638,0,0,0-2.638,2.688Z" transform="translate(-605.221 -461.553)" fill="#4d4d4d"/>
      <path id="Path_363-2" data-name="Path 363" d="M894.018,423.04s.638,2.126-2.977,4.04-4.678,9.143-.425,11.27,5.529,4.891,3.4,6.8-5.954,7.017-.851,8.293,5.741,3.827,4.253,4.891,3.4-1.914,3.4-1.914.851,5.1,5.316,3.827,8.921-24.467,3.943-30.44C905.453,424.257,894.018,423.04,894.018,423.04Z" transform="translate(-640.539 -313.238)" fill="#2f2e41"/>
      <path id="Path_364-2" data-name="Path 364" d="M904.129,412.164c0-3.115,9.321-.877,13.317,3.473,2.767,3.012,6.97,7.543,3.448,10.738s6.037,7.381,8.6,8.651,7.625,5.152,3.055,7.756-4.5,5.234-2.777,5.856-3.792-.926-3.792-.926.557,5.143-4.087,5.119-17.967-25.546-14.784-32.64C910.069,413.6,904.129,412.164,904.129,412.164Z" transform="translate(-652.009 -304.551)" fill="#2f2e41"/>
      <path id="Path_365-2" data-name="Path 365" d="M878.246,413.216c-12.463-.751-13.714,8.631-13.714,8.631.086,5.429,8.708,2.784,11.1,3.593,2.889-2.078,8.458-6.01,12.44-8.817A18.835,18.835,0,0,0,878.246,413.216Z" transform="translate(-624.107 -306.285)" fill="#2f2e41"/>
      <path id="Path_366-2" data-name="Path 366" d="M705.324,400.324s-11.18-52.4-81.155-90.4" transform="translate(-454.736 -233.528)" fill="none" stroke="#3f3d56" stroke-miterlimit="10" stroke-width="2"/>
      <path id="Path_367-2" data-name="Path 367" d="M575.207,254.891l.14.574-2.83.686.892,2.773-.563.18-1.086-3.378Z" transform="translate(-402.89 -179.642)" fill="#3f3d56"/>
      <path id="Path_368-2" data-name="Path 368" d="M76.929,761.3c0,6.636-3.945,8.953-8.811,8.953q-.169,0-.338,0c-.225,0-.449-.016-.669-.031-4.392-.311-7.8-2.747-7.8-8.919,0-6.387,8.162-14.446,8.775-15.043h0l.035-.034S76.929,754.662,76.929,761.3Z" transform="translate(-56.705 -540.966)" fill="#00d9a7"/>
      <path id="Path_369-2" data-name="Path 369" d="M79.6,769.236l3.223-4.5-3.231,5-.009.517c-.225,0-.449-.016-.669-.031l.347-6.639,0-.052.006-.01.033-.627-3.239-5.01,3.249,4.54.008.133.263-5.016-2.773-5.177,2.807,4.3.273-10.4v0l-.046,8.2L82.6,751.2l-2.772,3.958-.073,4.491,2.577-4.31-2.588,4.971-.041,2.5,3.742-6-3.756,6.871Z" transform="translate(-68.512 -540.966)" fill="#3f3d56"/>
      <path id="Path_370-2" data-name="Path 370" d="M220.45,788.109l1.885-1.4s1.248,6.969-.145,8.013-6.613,2.785-6.613,4.873-11.834,4.873-12.182,1.74a6.9,6.9,0,0,1,1.044-4.873s5.569-5.569,6.265-6.613,2.436-3.133,2.436-3.133Z" transform="translate(-158.198 -569.497)" fill="#2f2e41"/>
      <path id="Path_371-2" data-name="Path 371" d="M167,488.879s.052.306.143.867c.084.5.2,1.2.338,2.067,1.462,8.921,5.726,35.182,5.437,36.049-.348,1.044-2.784,4.873,0,5.917a2.159,2.159,0,0,1,.867.943,20.229,20.229,0,0,1,1.472,3.474,152.614,152.614,0,0,1,4.462,17.866c.449,2.346.755,4.232.846,5.221a2.84,2.84,0,0,1,.01.689c-.348,1.392,2.088,6.265,3.133,7.657s2.784,2.785,2.436,4.177,8.7,5.221,9.746,2.784a44.42,44.42,0,0,0,1.392-4.525c.348-.7.7-5.569-1.044-6.265s-.7-12.878-2.436-15.315c-.581-.811-1.469-3.557-2.4-6.86-.365-1.295-.734-2.673-1.1-4.055-1.469-5.663-2.771-11.361-2.771-11.361l.348-40.723-19.143-2.436-.491,1.082-.978,2.148Z" transform="translate(-132.589 -356.933)" fill="#2e2e2e"/>
      <path id="Path_372-2" data-name="Path 372" d="M132.361,721.326s-2.784-2.784-4.177,0-2.784,13.574-5.221,16.011-5.569,14.619-2.088,15.315,7.309-1.044,7.657-3.133,7.657-12.878,7.657-13.922-4.873-4.873-4.873-4.873Z" transform="translate(-98.998 -522.552)" fill="#2f2e41"/>
      <path id="Path_373-2" data-name="Path 373" d="M200.233,430.917s-4.525,40.723-5.569,44.552-6.613,18.447-8.353,20.884-12.878,22.276-14.27,23.32-4.177,3.829-4.177,3.829-5.221,5.221-5.917,6.265-6.613-2.088-6.961-4.177.348-5.569.7-6.961-.7-3.481.348-4.525,6.265-6.265,6.265-8.7,9.05-16.707,12.53-19.839,2.784-8.354,2.784-8.354V455.978l-19.143-5.917s1.044-16.707,3.481-16.707S196.4,427.785,200.233,430.917Z" transform="translate(-124.059 -318.115)" fill="#2e2e2e"/>
      <ellipse id="Ellipse_56-2" data-name="Ellipse 56" cx="11.486" cy="11.486" rx="11.486" ry="11.486" transform="translate(36.496 31.705)" fill="#9f616a"/>
      <path id="Path_374-2" data-name="Path 374" d="M189.382,214.007s1.392,5.221,3.133,6.613-4.525,7.309-4.525,7.309l-11.834.7-2.088-6.613s3.829-7.657,2.784-12.53S189.382,214.007,189.382,214.007Z" transform="translate(-137.571 -161.767)" fill="#9f616a"/>
      <path id="Path_375-2" data-name="Path 375" d="M189.272,248.18s-3.133.348-3.829,1.392-5.569,4.177-9.4,3.481-6.265-1.74-6.961-1.392S167,259.318,167,259.318l3.829,11.138-.7,30.629-1.044,8.353s-2.088-2.785,6.265-1.044,19.143-1.392,22.624-1.74,9.4-1.392,9.746-3.481-1.044-9.746-1.044-9.746l-5.569-23.32-3.481-12.53Z" transform="translate(-132.589 -190.023)" fill="#717171"/>
      <path id="Path_376-2" data-name="Path 376" d="M231.271,241.079s2.944-1.562,3.988-.169,14.27,3.481,14.27,4.525,2.784,29.237,2.088,31.673,1.392,5.221,1.392,5.221l2.436,10.442s6.613,19.839,3.829,20.536-5.221,0-6.265,0-.7-13.226-3.481-16.707-6.613-12.182-7.309-13.922-9.4-25.756-9.05-28.541S231.271,241.079,231.271,241.079Z" transform="translate(-177.88 -184.492)" fill="#d0cde1"/>
      <path id="Path_377-2" data-name="Path 377" d="M147.44,248.18s-2.784,0-3.133.7a38.093,38.093,0,0,1-5.221,6.265c-1.392,1.044-6.265,5.569-6.265,6.613s10.094,8.7,10.094,8.7,4.177,20.536,2.088,27.5-5.221,23.668-3.829,24.712,4.525,1.392,4.525,0,2.088-16.359,3.829-19.491,6.961-22.972,4.873-28.541S147.44,248.18,147.44,248.18Z" transform="translate(-108.507 -190.023)" fill="#d0cde1"/>
      <path id="Path_378-2" data-name="Path 378" d="M278.915,364.847s.348,10.79-3.481,16.359a66.146,66.146,0,0,0-6.265,11.834s-6.265-1.74-7.309-3.829-7.657-.348-7.657-1.044,8.005-4.177,8.7-4.873,3.133-.7,4.525-2.088,1.74-4.525,1.74-4.525l1.392-9.05Z" transform="translate(-194.039 -272.232)" fill="#9f616a"/>
      <path id="Path_379-2" data-name="Path 379" d="M184.761,147.9a6.619,6.619,0,0,0,2.576-.59,3.449,3.449,0,0,0,.882-5.107,6.6,6.6,0,0,0-1.224-.984l-2.646-1.8a12.941,12.941,0,0,0-3.733-1.981,11.652,11.652,0,0,0-3.816-.225,25.783,25.783,0,0,0-7.31,1.329,12.233,12.233,0,0,0-5.923,4.334c-2.24,3.241-2.271,7.613-1.037,11.354s3.577,7,5.887,10.193l1.2-5.846a2.158,2.158,0,0,1,.678-1.4c1.076-.766,2.393.807,3.714.8a2.225,2.225,0,0,0,1.883-1.49,8.492,8.492,0,0,0,.417-2.5c.158-1.791.784-4.283,2.48-5.271C180.369,147.791,182.984,148.063,184.761,147.9Z" transform="translate(-128.868 -111.793)" fill="#2f2e41"/>
      <path id="Path_380-2" data-name="Path 380" d="M232.356,498.71s-1.176,34-1.872,35.047,0-35.154,0-35.154Z" transform="translate(-177.108 -366.483)" opacity="0.1"/>
      <path id="Path_381-2" data-name="Path 381" d="M283.664,257.607h2.784s11.834,16.011,10.442,17.055,0,3.829,0,3.829l2.784,5.221s3.481,3.133,2.436,3.829-2.436,3.481-2.436,3.481-6.961-1.044-9.05,3.133l-4.514-5.7Z" transform="translate(-214.799 -196.666)" fill="#d0cde1"/>
      <rect id="Rectangle_326-2" data-name="Rectangle 326" width="10.337" height="19.264" transform="translate(60.294 70.037) rotate(-22.438)" fill="#2f2e41"/>
      <ellipse id="Ellipse_57-2" data-name="Ellipse 57" cx="2.067" cy="1.899" rx="2.067" ry="1.899" transform="translate(65.368 73.812) rotate(-22.438)" fill="#919191"/>
      <path id="Path_382-2" data-name="Path 382" d="M187.635,316.182s-25.06,20.884-29.237,14.27,4.525-12.182,4.525-12.182,7.657.348,16.359-5.221l8.7-3.829s7.944-11.341,10.651-7.023S194.013,314.033,187.635,316.182Z" transform="translate(-125.731 -227.395)" fill="#9f616a"/>
      <path id="Path_383-2" data-name="Path 383" d="M133.328,289.426l-3.829,1.392V301.26l-1.392,2.088s.348,4.177,1.392,5.221,3.133.7,2.436,3.133a13.191,13.191,0,0,0-.348,4.873s6.265,8.005,6.613,6.961,5.221-13.922,5.917-13.922-6.961-20.187-6.961-20.187Z" transform="translate(-105.186 -219.087)" fill="#d0cde1"/>
      <path id="Path_384-2" data-name="Path 384" d="M283.1,453.517s3.6-3.481,1.8-3.655-8.064-3.655-9.109-1.914S283.1,453.517,283.1,453.517Z" transform="translate(-209.186 -330.447)" fill="#2f2e41"/>
      <ellipse id="Ellipse_58-2" data-name="Ellipse 58" cx="4.97" cy="2.725" rx="4.97" ry="2.725" transform="translate(137.388 51.301)" fill="#57b894"/>
      <path id="Path_385-2" data-name="Path 385" d="M516.465,225.062a46.57,46.57,0,0,0-33.965,0V211.18a58.786,58.786,0,0,1,33.965,0Z" transform="translate(-354.908 -162.185)" fill="none" stroke="#3f3d56" stroke-miterlimit="10" stroke-width="1"/>
      <path id="Path_386-2" data-name="Path 386" d="M523.014,226.221a33.611,33.611,0,0,0-24.514,0V216.2a42.428,42.428,0,0,1,24.514,0Z" transform="translate(-366.183 -166.215)" fill="none" stroke="#3f3d56" stroke-miterlimit="10" stroke-width="1"/>
      <ellipse id="Ellipse_59-2" data-name="Ellipse 59" cx="4.97" cy="2.725" rx="4.97" ry="2.725" transform="translate(138.992 50.019)" fill="none" stroke="#3f3d56" stroke-miterlimit="10" stroke-width="2"/>
      <ellipse id="Ellipse_60-2" data-name="Ellipse 60" cx="5.021" cy="2.658" rx="5.021" ry="2.658" transform="matrix(0.98, -0.2, 0.2, 0.98, 140.068, 69.117)" fill="#57b894"/>
      <path id="Path_387-2" data-name="Path 387" d="M526.866,274.062a46.569,46.569,0,0,0-33.279,6.792l-2.776-13.6a58.786,58.786,0,0,1,33.279-6.792Z" transform="translate(-360.764 -198.502)" fill="none" stroke="#3f3d56" stroke-miterlimit="10" stroke-width="1"/>
      <path id="Path_388-2" data-name="Path 388" d="M533.182,276.932a33.611,33.611,0,0,0-24.019,4.9l-2-9.816a42.429,42.429,0,0,1,24.019-4.9Z" transform="translate(-372.284 -203.24)" fill="none" stroke="#3f3d56" stroke-miterlimit="10" stroke-width="1"/>
      <ellipse id="Ellipse_61-2" data-name="Ellipse 61" cx="5.021" cy="2.658" rx="5.021" ry="2.658" transform="matrix(0.98, -0.2, 0.2, 0.98, 141.568, 67.605)" fill="none" stroke="#3f3d56" stroke-miterlimit="10" stroke-width="2"/>
      <ellipse id="Ellipse_62-2" data-name="Ellipse 62" cx="2.658" cy="5.021" rx="2.658" ry="5.021" transform="translate(139.285 89.542) rotate(-86.019)" fill="#57b894"/>
      <path id="Path_389-2" data-name="Path 389" d="M521.6,338.93a46.57,46.57,0,0,0-33.883-2.358l.964-13.848a58.786,58.786,0,0,1,33.884,2.358Z" transform="translate(-358.582 -241.519)" fill="none" stroke="#3f3d56" stroke-miterlimit="10" stroke-width="1"/>
      <path id="Path_390-2" data-name="Path 390" d="M528.8,339.853a33.611,33.611,0,0,0-24.455-1.7l.7-9.995a42.428,42.428,0,0,1,24.455,1.7Z" transform="translate(-370.304 -245.634)" fill="none" stroke="#3f3d56" stroke-miterlimit="10" stroke-width="1"/>
      <ellipse id="Ellipse_63-2" data-name="Ellipse 63" cx="2.658" cy="5.021" rx="2.658" ry="5.021" transform="translate(141.135 88.486) rotate(-86.019)" fill="none" stroke="#3f3d56" stroke-miterlimit="10" stroke-width="2"/>
      <path id="Path_391-2" data-name="Path 391" d="M376.649,264.144s-21.707-2.97-37.209,6.115" transform="translate(-254.101 -200.945)" fill="none" stroke="#3f3d56" stroke-miterlimit="10" stroke-width="2"/>
      <path id="Path_392-2" data-name="Path 392" d="M288.149,224.459l.564.178-.881,2.776,2.834.676-.138.575-3.451-.824Z" transform="translate(-202.289 -158.198)" fill="#3f3d56"/>
    </g>
  </g>
</svg>
