<svg id="Icon_ionic-ios-cart" data-name="Icon ionic-ios-cart" xmlns="http://www.w3.org/2000/svg" width="29.428" height="27.182" viewBox="0 0 29.428 27.182">
  <path id="Path_4" data-name="Path 4" d="M12.959,29.823a1.7,1.7,0,1,1-1.7-1.7,1.7,1.7,0,0,1,1.7,1.7Z" transform="translate(-3.342 -4.341)" fill="#fff"/>
  <path id="Path_5" data-name="Path 5" d="M28.744,29.823a1.7,1.7,0,1,1-1.7-1.7,1.7,1.7,0,0,1,1.7,1.7Z" transform="translate(-3.24 -4.341)" fill="#fff"/>
  <path id="Path_6" data-name="Path 6" d="M32.8,9.326a.416.416,0,0,0-.368-.3L9.383,6.8a.71.71,0,0,1-.531-.333,7.206,7.206,0,0,0-.863-1.316c-.545-.665-1.571-.644-3.453-.658a1.031,1.031,0,0,0-1.153,1,1.012,1.012,0,0,0,1.1,1,9.4,9.4,0,0,1,1.84.134c.333.1.6.644.7,1.118a.026.026,0,0,0,.007.021c.014.085.142.722.142.729l2.831,14.974a5.5,5.5,0,0,0,1.026,2.526,2.824,2.824,0,0,0,2.328,1.146H30.1a1.006,1.006,0,0,0,1.019-.948.986.986,0,0,0-.991-1.033H13.346a.822.822,0,0,1-.587-.2,3.176,3.176,0,0,1-.814-1.84l-.3-1.677a.039.039,0,0,1,.028-.042L31.32,18.073a.413.413,0,0,0,.347-.368L32.8,9.51A.4.4,0,0,0,32.8,9.326Z" transform="translate(-3.382 -4.493)" fill="#fff"/>
</svg>
