<svg id="Icon_ionic-ios-cart" data-name="Icon ionic-ios-cart" xmlns="http://www.w3.org/2000/svg" width="24.152" height="22.079" viewBox="0 0 27.152 25.079">
  <path id="Path_13" data-name="Path 13" d="M12.109,29.4a1.273,1.273,0,1,1-1.273-1.273A1.273,1.273,0,0,1,12.109,29.4Z" transform="translate(-3.683 -5.593)" fill="#6e6e6e"/>
  <path id="Path_14" data-name="Path 14" d="M27.894,29.4a1.273,1.273,0,1,1-1.273-1.273A1.273,1.273,0,0,1,27.894,29.4Z" transform="translate(-3.685 -5.593)" fill="#6e6e6e"/>
  <path id="Path_15" data-name="Path 15" d="M30.524,9.12a.387.387,0,0,0-.34-.285L8.919,6.7a.653.653,0,0,1-.49-.318,6.93,6.93,0,0,0-.8-1.26c-.5-.637-1.449-.616-3.186-.63a.964.964,0,0,0-1.064.955A.948.948,0,0,0,4.4,6.4a8.368,8.368,0,0,1,1.7.129c.307.095.555.616.646,1.07a.025.025,0,0,0,.007.02c.013.081.131.691.131.7L9.493,22.655a5.377,5.377,0,0,0,.947,2.418,2.574,2.574,0,0,0,2.148,1.1H28.036a.943.943,0,0,0,.94-.908.929.929,0,0,0-.914-.989H12.575a.74.74,0,0,1-.542-.19,3.087,3.087,0,0,1-.751-1.761L11,20.717a.037.037,0,0,1,.026-.041l18.132-3.184a.39.39,0,0,0,.32-.352L30.524,9.3A.4.4,0,0,0,30.524,9.12Z" transform="translate(-3.382 -4.493)" fill="#6e6e6e"/>
</svg>
