<svg xmlns="http://www.w3.org/2000/svg" width="29.941" height="27.885" viewBox="0 0 29.941 27.885">
  <path id="Icon_material-collections-bookmark" data-name="Icon material-collections-bookmark" d="M5.994,8.577H3V28.1a2.905,2.905,0,0,0,2.994,2.789H26.953V28.1H5.994ZM29.947,3H11.982A2.905,2.905,0,0,0,8.988,5.788V22.52a2.905,2.905,0,0,0,2.994,2.789H29.947a2.905,2.905,0,0,0,2.994-2.789V5.788A2.905,2.905,0,0,0,29.947,3Zm0,13.943L26.2,14.851l-3.743,2.091V5.788h7.485Z" transform="translate(-3 -3)" fill="#c9cce3"/>
</svg>
