<svg xmlns="http://www.w3.org/2000/svg" width="26.7" height="26.213" viewBox="0 0 26.7 26.213">
  <path id="Icon_simple-microsoftexcel" data-name="Icon simple-microsoftexcel" d="M26.2,3.536H17.258V5.191h2.637V7.81H17.258v.834h2.637v2.622H17.258v.858h2.637V14.6H17.258V15.6h2.637v2.485H17.258v.993h2.637v2.5H17.258V23.4H26.2c.141-.042.259-.209.354-.5a2.439,2.439,0,0,0,.144-.708V3.838c0-.142-.049-.228-.144-.258A1.224,1.224,0,0,0,26.2,3.536Zm-1.16,18.038H20.752v-2.5h4.291v2.5Zm0-3.491H20.752V15.6h4.291Zm0-3.48H20.752V12.134h4.291V14.6Zm0-3.338H20.752V8.647h4.291v2.62h0Zm0-3.47H20.752v-2.6h4.291V7.8ZM0,3.123V23.817l15.753,2.725V.329L0,3.132ZM9.337,18.777q-.09-.244-.843-2.073c-.5-1.219-.8-1.929-.889-2.132H7.577l-1.69,4.022-2.258-.152,2.679-5.006L3.855,8.43l2.3-.121L7.68,12.226h.03l1.719-4.1,2.38-.15L8.975,13.4l2.92,5.527-2.558-.15Z" transform="translate(0 -0.329)" fill="#fff"/>
</svg>
