<svg xmlns="http://www.w3.org/2000/svg" width="22.624" height="15.083" viewBox="0 0 22.624 15.083">
  <path id="Icon_awesome-eye" data-name="Icon awesome-eye" d="M22.488,11.468A12.6,12.6,0,0,0,11.312,4.5,12.6,12.6,0,0,0,.137,11.468a1.271,1.271,0,0,0,0,1.147,12.6,12.6,0,0,0,11.175,6.968,12.6,12.6,0,0,0,11.175-6.968A1.271,1.271,0,0,0,22.488,11.468ZM11.312,17.7a5.656,5.656,0,1,1,5.656-5.656A5.656,5.656,0,0,1,11.312,17.7Zm0-9.427a3.744,3.744,0,0,0-.994.149A1.879,1.879,0,0,1,7.69,11.047a3.762,3.762,0,1,0,3.622-2.777Z" transform="translate(0 -4.5)" fill="#d6d6d6"/>
</svg>
