<svg xmlns="http://www.w3.org/2000/svg" width="26.457" height="26.542" viewBox="0 0 26.457 26.542">
  <path id="Icon_awesome-history" data-name="Icon awesome-history" d="M27.019,13.808A13.28,13.28,0,0,1,13.8,27.1a13.147,13.147,0,0,1-8.312-2.938,1.286,1.286,0,0,1-.1-1.905l.6-.6a1.279,1.279,0,0,1,1.7-.106,9.834,9.834,0,1,0,6.1-17.564A9.764,9.764,0,0,0,7.066,6.659L9.774,9.375a.857.857,0,0,1-.6,1.462H1.416a.855.855,0,0,1-.853-.856V2.2A.853.853,0,0,1,2.019,1.6L4.653,4.238a13.219,13.219,0,0,1,22.366,9.57Zm-9.65,4.216.524-.676a1.287,1.287,0,0,0-.225-1.8L15.5,13.852V8.268a1.282,1.282,0,0,0-1.28-1.284h-.853a1.282,1.282,0,0,0-1.28,1.284v7.259l3.489,2.722A1.277,1.277,0,0,0,17.369,18.024Z" transform="translate(-0.563 -0.563)" fill="#c9cce3"/>
</svg>
