<svg xmlns="http://www.w3.org/2000/svg" width="27" height="27" viewBox="0 0 27 27">
  <path id="Icon_material-av-timer" data-name="Icon material-av-timer" d="M16.5,25.5A1.5,1.5,0,1,0,18,24,1.5,1.5,0,0,0,16.5,25.5Zm0-21v6h3V7.62A10.494,10.494,0,1,1,7.5,18a10.376,10.376,0,0,1,2.37-6.63L18,19.5l2.115-2.115-10.2-10.2v.03A13.474,13.474,0,1,0,18,4.5ZM27,18a1.5,1.5,0,1,0-1.5,1.5A1.5,1.5,0,0,0,27,18ZM9,18a1.5,1.5,0,1,0,1.5-1.5A1.5,1.5,0,0,0,9,18Z" transform="translate(-4.5 -4.5)" fill="#ffb258"/>
</svg>
