<svg xmlns="http://www.w3.org/2000/svg" width="19.014" height="25.352" viewBox="0 0 19.014 25.352">
  <path id="Icon_awesome-file-pdf" data-name="Icon awesome-file-pdf" d="M9.007,12.681a4.777,4.777,0,0,1-.1-2.322C9.324,10.359,9.284,12.186,9.007,12.681Zm-.084,2.337a22.848,22.848,0,0,1-1.406,3.1,18.233,18.233,0,0,1,3.115-1.084A6.414,6.414,0,0,1,8.923,15.018ZM4.263,21.2c0,.04.654-.267,1.728-1.991A6.844,6.844,0,0,0,4.263,21.2ZM12.28,7.923h6.734V24.164a1.186,1.186,0,0,1-1.188,1.188H1.188A1.186,1.186,0,0,1,0,24.164V1.188A1.186,1.186,0,0,1,1.188,0h9.9V6.734A1.192,1.192,0,0,0,12.28,7.923Zm-.4,8.507A4.97,4.97,0,0,1,9.77,13.765a7.117,7.117,0,0,0,.307-3.179A1.24,1.24,0,0,0,7.71,10.25a8.233,8.233,0,0,0,.4,3.813,46.5,46.5,0,0,1-2.02,4.248s0,0-.01,0c-1.342.688-3.644,2.2-2.7,3.367a1.539,1.539,0,0,0,1.065.5c.886,0,1.768-.891,3.025-3.06a28.225,28.225,0,0,1,3.912-1.149,7.5,7.5,0,0,0,3.169.966,1.282,1.282,0,0,0,.975-2.149c-.688-.673-2.689-.48-3.644-.357ZM18.668,5.2,13.815.347A1.187,1.187,0,0,0,12.973,0h-.3V6.338h6.338v-.3A1.185,1.185,0,0,0,18.668,5.2ZM15,17.841c.2-.134-.124-.589-2.119-.446C14.716,18.177,15,17.841,15,17.841Z" fill="#fff"/>
</svg>
