<svg xmlns="http://www.w3.org/2000/svg" width="15.084" height="15.577" viewBox="0 0 15.084 15.577">
  <path id="Icon_awesome-pencil-alt" data-name="Icon awesome-pencil-alt" d="M14.67,4.327l-1.358,1.4a.346.346,0,0,1-.5,0L9.541,2.352a.374.374,0,0,1,0-.517L10.9.432a1.386,1.386,0,0,1,2,0L14.67,2.261A1.492,1.492,0,0,1,14.67,4.327Zm-6.3-1.287L.637,11.029l-.625,3.7a.72.72,0,0,0,.819.846l3.58-.648,7.737-7.99a.374.374,0,0,0,0-.517L8.878,3.039a.349.349,0,0,0-.5,0ZM3.657,10.345a.434.434,0,0,1,0-.6L8.195,5.057a.4.4,0,0,1,.583,0,.434.434,0,0,1,0,.6L4.241,10.345a.4.4,0,0,1-.583,0ZM2.594,12.9H4.008v1.1l-1.9.344-.916-.946.333-1.962H2.594Z" transform="translate(-0.002 -0.005)" fill="#d6d6d6"/>
</svg>
