<svg xmlns="http://www.w3.org/2000/svg" width="19.188" height="19.188" viewBox="0 0 19.188 19.188">
  <path id="Icon_awesome-print" data-name="Icon awesome-print" d="M16.789,7.2v-4.3a1.2,1.2,0,0,0-.351-.848l-1.7-1.7A1.2,1.2,0,0,0,13.894,0H3.6A1.2,1.2,0,0,0,2.4,1.2v6A2.4,2.4,0,0,0,0,9.594v4.2a.6.6,0,0,0,.6.6H2.4v3.6a1.2,1.2,0,0,0,1.2,1.2H15.59a1.2,1.2,0,0,0,1.2-1.2v-3.6h1.8a.6.6,0,0,0,.6-.6v-4.2A2.4,2.4,0,0,0,16.789,7.2Zm-2.4,9.594H4.8v-3.6h9.594Zm0-8.395H4.8v-6h7.2V4.2a.6.6,0,0,0,.6.6h1.8Zm1.8,2.7a.9.9,0,1,1,.9-.9A.9.9,0,0,1,16.189,11.093Z" fill="#fff"/>
</svg>
