<svg xmlns="http://www.w3.org/2000/svg" width="32.519" height="27.071" viewBox="0 0 32.519 27.071">
  <path id="Icon_awesome-book-open" data-name="Icon awesome-book-open" d="M30.612,2.253c-3.094.188-9.243.872-13.039,3.359a.946.946,0,0,0-.41.8V28.4a.9.9,0,0,0,1.314.815c3.906-2.1,9.554-2.678,12.347-2.835a1.83,1.83,0,0,0,1.695-1.853V4.108a1.822,1.822,0,0,0-1.907-1.855ZM14.946,5.612C11.15,3.125,5,2.442,1.907,2.253A1.823,1.823,0,0,0,0,4.108V24.523a1.829,1.829,0,0,0,1.695,1.853c2.794.157,8.445.732,12.351,2.837a.892.892,0,0,0,1.31-.813V6.4A.925.925,0,0,0,14.946,5.612Z" transform="translate(0 -2.25)" fill="#c9cce3"/>
</svg>
