<svg xmlns="http://www.w3.org/2000/svg" width="12.78" height="15.083" viewBox="0 0 12.78 15.083">
  <path id="Icon_awesome-trash-alt" data-name="Icon awesome-trash-alt" d="M.913,13.669a1.392,1.392,0,0,0,1.369,1.414H10.5a1.392,1.392,0,0,0,1.369-1.414v-9.9H.913ZM8.672,6.127a.457.457,0,1,1,.913,0v6.6a.457.457,0,1,1-.913,0Zm-2.738,0a.457.457,0,1,1,.913,0v6.6a.457.457,0,1,1-.913,0Zm-2.738,0a.457.457,0,1,1,.913,0v6.6a.457.457,0,1,1-.913,0ZM12.323.943H8.9L8.632.392A.683.683,0,0,0,8.019,0H4.758a.675.675,0,0,0-.61.392L3.88.943H.456A.464.464,0,0,0,0,1.414v.943a.464.464,0,0,0,.456.471H12.323a.464.464,0,0,0,.456-.471V1.414A.464.464,0,0,0,12.323.943Z" transform="translate(0 0)" fill="#d6d6d6"/>
</svg>
