<svg xmlns="http://www.w3.org/2000/svg" width="34.636" height="27.209" viewBox="0 0 34.636 27.209">
  <path id="Icon_awesome-user-check" data-name="Icon awesome-user-check" d="M12.123,13.6A6.865,6.865,0,0,0,19.05,6.8,6.865,6.865,0,0,0,12.123,0,6.865,6.865,0,0,0,5.2,6.8,6.865,6.865,0,0,0,12.123,13.6Zm4.849,1.7h-.9a9.578,9.578,0,0,1-7.891,0h-.9A7.211,7.211,0,0,0,0,22.448v2.211a2.575,2.575,0,0,0,2.6,2.551h19.05a2.575,2.575,0,0,0,2.6-2.551V22.448A7.211,7.211,0,0,0,16.972,15.305Zm17.48-6.824-1.5-1.493a.65.65,0,0,0-.909-.005L26.367,12.51,23.9,10.076A.65.65,0,0,0,23,10.071l-1.521,1.483a.622.622,0,0,0-.005.893l4.422,4.374a.65.65,0,0,0,.909.005l7.647-7.451a.627.627,0,0,0,.005-.893Z" fill="#c9cce3"/>
</svg>
